{"accessors":[{"bufferView":0,"byteOffset":0,"componentType":5126,"count":2210,"max":[0.0998867377638817,0.100000001490116,0.0998867377638817],"min":[-0.09988673776388,-0.10000000149012,-0.09988673776388],"normalized":false,"type":"VEC3"},{"bufferView":1,"byteOffset":0,"componentType":5126,"count":2210,"max":[1,0,1,1],"min":[-1,-0.00002157951531,-1,1],"normalized":false,"type":"VEC4"},{"bufferView":2,"byteOffset":0,"componentType":5126,"count":2210,"max":[0.998868048191071,1,0.998868048191071],"min":[-0.99886882305145,-1,-0.99886721372604],"normalized":false,"type":"VEC3"},{"bufferView":3,"byteOffset":0,"componentType":5126,"count":2210,"max":[1,1],"min":[0,0],"normalized":false,"type":"VEC2"},{"bufferView":4,"byteOffset":0,"componentType":5123,"count":12672,"max":[2209],"min":[0],"normalized":false,"type":"SCALAR"}],"asset":{"generator":"Godot Engine v4.3.stable.official@77dcf97d82cbfe4e4615475fa52ca03da645dbd8","version":"2.0"},"bufferViews":[{"buffer":0,"byteLength":26520,"byteOffset":0,"byteStride":12,"target":34962},{"buffer":0,"byteLength":35360,"byteOffset":26520,"byteStride":16,"target":34962},{"buffer":0,"byteLength":26520,"byteOffset":61880,"byteStride":12,"target":34962},{"buffer":0,"byteLength":17680,"byteOffset":88400,"byteStride":8,"target":34962},{"buffer":0,"byteLength":25344,"byteOffset":106080,"target":34963}],"buffers":[{"byteLength":131424,"uri":"sideway_wave0.bin"}],"extensionsUsed":["GODOT_single_root"],"materials":[{"extensions":{},"pbrMetallicRoughness":{"baseColorFactor":[0,0.0742135643959045,0.266355603933334,1],"metallicFactor":0,"roughnessFactor":1}}],"meshes":[{"extras":{"targetNames":[]},"primitives":[{"attributes":{"NORMAL":2,"POSITION":0,"TANGENT":1,"TEXCOORD_0":3},"indices":4,"material":0,"mode":4}]}],"nodes":[{"children":[1],"name":"Node3D"},{"mesh":0,"name":"MeshInstance3D","scale":[2,1,0.200000002980232]}],"scene":0,"scenes":[{"nodes":[0]}]}